<mxfile host="app.diagrams.net" modified="2023-07-13T13:25:51.676Z" agent="Mozilla/5.0 (Windows NT 10.0; Win64; x64) AppleWebKit/537.36 (KHTML, like Gecko) Chrome/114.0.0.0 Safari/537.36" version="21.6.2" etag="4BNI0WNYKDhv4Old64Xc" type="github">
  <diagram name="Page-1" id="WJJ_eknMvUSUuJzPp3rs">
    <mxGraphModel>
      <root>
        <mxCell id="0" />
        <mxCell id="1" parent="0" />
      </root>
    </mxGraphModel>
  </diagram>
</mxfile>
